<svg height='100px' width='100px'  fill="#000000" version="1.1" xmlns="http://www.w3.org/2000/svg" xmlns:xlink="http://www.w3.org/1999/xlink" x="0px" y="0px" viewBox="0.334 0 99.331 100" enable-background="new 0.334 0 99.331 100" xml:space="preserve"><g><path d="M83.811,34.049c-6.335,0-11.787,3.846-14.326,9.109h-33.36V25.263h8.782c2.446,5.263,8.026,8.999,14.53,8.999
		c8.756,0,15.855-7.246,15.855-15.999c0-8.758-7.098-16.004-15.855-16.004c-6.336,0-11.787,4.057-14.326,9.32h-8.985V5.057
		C36.125,2.263,33.862,0,31.07,0H5.391C2.599,0,0.334,2.263,0.334,5.057v89.887c0,2.792,2.263,5.056,5.056,5.056h25.68
		c2.79,0,5.054-2.264,5.054-5.058v-5.469h12.677c2.446,4.211,8.026,8.892,14.53,8.892c8.755,0,15.854-7.508,15.854-16.261
		c0-8.758-7.097-16.268-15.854-16.268c-6.336,0-11.787,4.689-14.326,8.9H36.124V56.842h33.158c2.447,5.264,8.026,9.209,14.529,9.209
		c8.756,0,15.854-7.245,15.854-16C99.665,41.295,92.567,34.049,83.811,34.049z"></path></g></svg>